<svg width="45" height="45" viewBox="0 0 45 45" fill="none" xmlns="http://www.w3.org/2000/svg">
<circle cx="23" cy="22" r="19.25" fill="white" stroke="#C3C3C3" stroke-width="1.5"/>
<g clip-path="url(#clip0_801_34)">
<path d="M22.0718 14.8059C23.2752 14.8048 24.4519 15.1606 25.4531 15.8284C26.4542 16.4962 27.2348 17.4459 27.6961 18.5574C28.1573 19.6689 28.2786 20.8922 28.0445 22.0726C27.8104 23.253 27.2315 24.3375 26.3809 25.1888C25.5304 26.0401 24.4464 26.6201 23.2662 26.8552C22.086 27.0904 20.8626 26.9703 19.7507 26.51C18.6388 26.0497 17.6884 25.27 17.0197 24.2695C16.351 23.269 15.9941 22.0926 15.9941 20.8892C16.0014 19.279 16.6439 17.7368 17.7819 16.5977C18.92 15.4586 20.4616 14.8146 22.0718 14.8059ZM22.0718 13.667C20.6434 13.667 19.2471 14.0906 18.0594 14.8842C16.8717 15.6777 15.946 16.8057 15.3994 18.1254C14.8527 19.4451 14.7097 20.8972 14.9884 22.2982C15.2671 23.6992 15.9549 24.9861 16.965 25.9961C17.975 27.0061 19.2619 27.694 20.6628 27.9727C22.0638 28.2513 23.516 28.1083 24.8357 27.5617C26.1553 27.015 27.2833 26.0894 28.0769 24.9017C28.8705 23.714 29.2941 22.3176 29.2941 20.8892C29.2941 18.9738 28.5331 17.1368 27.1787 15.7823C25.8243 14.4279 23.9873 13.667 22.0718 13.667Z" fill="#121212" fill-opacity="0.8"/>
<path d="M32.4449 30.4943L28.3504 26.3721L27.5615 27.1554L31.656 31.2776C31.7074 31.3294 31.7685 31.3706 31.8359 31.3988C31.9032 31.4269 31.9755 31.4416 32.0484 31.4418C32.1214 31.4421 32.1938 31.428 32.2613 31.4003C32.3289 31.3726 32.3903 31.3318 32.4421 31.2804C32.4939 31.229 32.535 31.1678 32.5632 31.1005C32.5914 31.0332 32.606 30.9609 32.6063 30.8879C32.6065 30.8149 32.5924 30.7426 32.5647 30.6751C32.537 30.6075 32.4963 30.5461 32.4449 30.4943Z" fill="#121212" fill-opacity="0.8"/>
</g>
<defs>
<clipPath id="clip0_801_34">
<rect width="20" height="20" fill="white" transform="translate(13 12)"/>
</clipPath>
</defs>
</svg>
